<?xml version="1.0" encoding="utf-8"?>
<!-- Generator: Adobe Illustrator 28.0.0, SVG Export Plug-In . SVG Version: 6.00 Build 0)  -->
<svg version="1.1" id="Layer_2_00000126325507280870150360000008067113985794940545_"
	 xmlns="http://www.w3.org/2000/svg" xmlns:xlink="http://www.w3.org/1999/xlink" x="0px" y="0px" viewBox="0 0 206.4 42"
	 style="enable-background:new 0 0 206.4 42;" xml:space="preserve">
<style type="text/css">
	.st0{fill:#FFFFFF;}
</style>
<g id="Group-3">
	<g id="Clip-2">
	</g>
	<path id="Fill-1" class="st0" d="M35.2,29.4h-5.1L26,22.7v6.7h-0.9V19.3l5.5,9.2h3.6V13.3h-2.9V24l-6.4-10.7h-2.7v10.1
		c0,4-2.1,6.2-6.1,6.2c-4.5,0-6.1-3.1-6.1-5.7V22h4.3v1.2c0,1.7,0.5,2.3,1.7,2.3c1.4,0,1.5-0.9,1.5-2.3V12.4h0.9v10.9
		c0,1.2,0,3.2-2.4,3.2s-2.6-1.9-2.6-3.3V23H11v1c0,3.5,2.6,4.8,5.1,4.8c3.5,0,5.2-1.7,5.2-5.2V12.4h4.2l4.9,8.2v-8.2h4.8V29.4z
		 M23.8,0C12.2,0,2.7,9.4,2.7,21s9.5,21,21.1,21C35.5,42,45,32.6,45,21S35.5,0,23.8,0L23.8,0z"/>
</g>
<g>
	<g>
		<g>
			<path class="st0" d="M69.3,12.2l-6.4,16.8h3l1.6-4.4h6.7l1.6,4.4h3.1l-6.5-16.8H69.3z M68.3,22.3l2.5-7.2h0.1l2.5,7.2H68.3z"/>
			<polygon class="st0" points="194.3,21.3 199.5,16.8 197.5,16.8 190.8,22.7 190.8,12.2 189.3,12.2 189.3,29 190.8,29 190.8,24.3 
				193.2,22.4 198,29 199.8,29 			"/>
			<path class="st0" d="M63.3,12.2h-2.9v11.5c0,2.1-0.4,3.2-2.3,3.2c-1.8,0-2.3-1.1-2.3-3v-0.9h-2.9V24c0,3.1,1.5,5.4,5,5.4
				c4.8,0,5.5-2.9,5.5-5.8L63.3,12.2L63.3,12.2z"/>
			<path class="st0" d="M183.5,19.7L183.5,19.7l0-2.8h-1.4V29h1.5v-6.5c0-2.6,1.8-4.5,4.5-4.4v-1.5
				C185.9,16.6,184.3,17.7,183.5,19.7z"/>
			<path class="st0" d="M140.6,16.5c-3.9,0-5.5,3.2-5.5,6.4c0,3.5,1.6,6.4,5.5,6.4c3.1,0,4.7-1.6,5.3-4.4h-1.5
				c-0.5,1.9-1.7,3.1-3.8,3.1c-2.8,0-4-2.6-4-4.8h9.3C146,19.9,144.5,16.5,140.6,16.5z M140.6,17.7c2.4,0,3.8,2.1,3.9,4.3h-7.8
				C136.9,19.8,138.2,17.7,140.6,17.7z"/>
			<path class="st0" d="M149.6,13.2h-1.5v3.6H146v1.2h2.1v8.3c0,2.1,0.7,2.7,2.6,2.7c0.4,0,0.9,0,1.3,0v-1.3c-0.4,0-0.8,0.1-1.3,0.1
				c-1.1-0.1-1.2-0.6-1.2-1.6v-8.2h2.5v-1.2h-2.5L149.6,13.2L149.6,13.2z"/>
			<path class="st0" d="M175.3,16.5c-3.7,0-5.7,2.9-5.7,6.4c0,3.5,2,6.4,5.7,6.4c3.7,0,5.7-2.9,5.7-6.4
				C181.1,19.4,179,16.5,175.3,16.5z M175.3,28.1c-2.8,0-4.2-2.6-4.2-5.2s1.4-5.2,4.2-5.2s4.2,2.6,4.2,5.2S178.2,28.1,175.3,28.1z"
				/>
			<polygon class="st0" points="88.6,25.3 88.5,25.3 83.9,12.2 79.8,12.2 79.8,29 82.5,29 82.5,16 82.6,16 87.2,29 89.6,29 94.3,16 
				94.3,16 94.3,29 97.1,29 97.1,12.2 93.1,12.2 			"/>
			<polygon class="st0" points="132.3,26.4 132.2,26.4 122.4,12.2 120.7,12.2 120.7,29 122.2,29 122.2,14.8 122.3,14.8 132.1,29 
				133.8,29 133.8,12.2 132.3,12.2 			"/>
			<polygon class="st0" points="168.2,16.8 165.1,27.2 165.1,27.2 162.1,16.8 160.4,16.8 157.5,27.2 157.4,27.2 154.3,16.8 
				152.8,16.8 156.7,29 158.3,29 161.2,18.8 161.3,18.8 164.3,29 165.9,29 169.8,16.8 			"/>
			<path class="st0" d="M104.5,12.2L98,28.9h3l1.6-4.4h6.7l1.6,4.4h3.1l-6.5-16.8H104.5z M103.4,22.3l2.5-7.2h0.1l2.5,7.2H103.4z"/>
		</g>
	</g>
	<path class="st0" d="M202.8,16.9c0.6,0,1.2-0.5,1.2-1.2c0-0.7-0.6-1.2-1.2-1.2c-0.6,0-1.2,0.5-1.2,1.2
		C201.5,16.4,202.1,16.9,202.8,16.9z M202.8,14.8c0.5,0,0.9,0.4,0.9,1c0,0.6-0.4,1-0.9,1c-0.6,0-0.9-0.4-0.9-1
		C201.8,15.2,202.2,14.8,202.8,14.8z"/>
	<path class="st0" d="M202.5,15.9h0.2l0.3,0.6h0.2l-0.4-0.6c0.2,0,0.3-0.1,0.3-0.3c0-0.3-0.2-0.4-0.5-0.4h-0.5v1.3h0.2L202.5,15.9
		L202.5,15.9z M202.5,15.3h0.3c0.1,0,0.3,0,0.3,0.2c0,0.2-0.1,0.2-0.3,0.2h-0.2L202.5,15.3L202.5,15.3z"/>
</g>
</svg>
