<svg width="20" height="16" viewBox="0 0 20 16" fill="none" xmlns="http://www.w3.org/2000/svg">
<path d="M2.85 8.625C2.88333 9.10834 3.08333 9.54167 3.45 9.925C3.81667 10.3083 4.36667 10.5 5.1 10.5C5.65 10.5 6.05833 10.3833 6.325 10.15C6.59167 9.9 6.725 9.60833 6.725 9.275C6.725 8.99167 6.625 8.75 6.425 8.55C6.225 8.33333 5.88333 8.175 5.4 8.075L3.775 7.7C2.575 7.43333 1.7 6.975 1.15 6.325C0.6 5.65833 0.325 4.89167 0.325 4.025C0.325 3.475 0.441667 2.95833 0.675 2.475C0.908333 1.975 1.225 1.55 1.625 1.2C2.04167 0.833334 2.525 0.541667 3.075 0.325001C3.64167 0.108334 4.25833 0 4.925 0C5.79167 0 6.525 0.125001 7.125 0.375001C7.725 0.608334 8.20833 0.908334 8.575 1.275C8.95833 1.64167 9.24167 2.03333 9.425 2.45C9.60833 2.85 9.71667 3.21667 9.75 3.55L6.975 4.175C6.94167 3.99167 6.88333 3.80833 6.8 3.625C6.73333 3.425 6.61667 3.24167 6.45 3.075C6.28333 2.90833 6.075 2.775 5.825 2.675C5.59167 2.575 5.3 2.525 4.95 2.525C4.51667 2.525 4.14167 2.64167 3.825 2.875C3.525 3.10833 3.375 3.4 3.375 3.75C3.375 4.05 3.475 4.29167 3.675 4.475C3.89167 4.65833 4.16667 4.78333 4.5 4.85L6.25 5.225C7.46667 5.475 8.375 5.94167 8.975 6.625C9.59167 7.30833 9.9 8.1 9.9 9C9.9 9.5 9.8 9.99167 9.6 10.475C9.41667 10.9583 9.125 11.3917 8.725 11.775C8.325 12.1583 7.825 12.4667 7.225 12.7C6.625 12.9333 5.925 13.05 5.125 13.05C4.19167 13.05 3.40833 12.9167 2.775 12.65C2.14167 12.3833 1.625 12.0583 1.225 11.675C0.825 11.2917 0.525 10.8833 0.325 10.45C0.141667 10 0.0333333 9.6 0 9.25L2.85 8.625Z" fill="#0062FF"/>
<path d="M11.225 15.4V12.675H20V15.4H11.225Z" fill="#0062FF"/>
</svg>
