<?xml version="1.0" encoding="UTF-8"?>
<svg width="128px" height="15px" viewBox="0 0 128 15" version="1.1" xmlns="http://www.w3.org/2000/svg" xmlns:xlink="http://www.w3.org/1999/xlink">
    <!-- Generator: sketchtool 48.2 (47327) - http://www.bohemiancoding.com/sketch -->
    <title>2BEA2EAD-A5D5-4804-AE55-79627F58CEE2</title>
    <desc>Created with sketchtool.</desc>
    <defs>
        <polygon id="path-1" points="0.000338709677 0.188225806 8.78259677 0.188225806 8.78259677 14.5159839 0.000338709677 14.5159839"></polygon>
        <polygon id="path-3" points="0.226693548 0.188225806 14.7495968 0.188225806 14.7495968 14.1811935 0.226693548 14.1811935"></polygon>
        <polygon id="path-5" points="0.0150483871 0.188225806 13.3819839 0.188225806 13.3819839 14.1814355 0.0150483871 14.1814355"></polygon>
        <polygon id="path-7" points="0.131322581 0.389854839 3.89080645 0.389854839 3.89080645 2.18453226 0.131322581 2.18453226"></polygon>
    </defs>
    <g id="-Symbols" stroke="none" stroke-width="1" fill="none" fill-rule="evenodd">
        <g id="Logo-/-Network-/-™">
            <g id="Page-1">
                <path d="M13.7608548,0.483967742 L8.39085484,14.4770323 L10.9190806,14.4770323 L12.2332742,10.7744516 L17.8195645,10.7744516 L19.1327903,14.4770323 L21.7606935,14.4770323 L16.3694032,0.483967742 L13.7608548,0.483967742 Z M15.0155323,2.8946129 L15.0745645,2.8946129 L17.1721452,8.91106452 L12.9000484,8.91106452 L15.0155323,2.8946129 Z" id="Fill-1" fill="#FEFEFE"></path>
                <polygon id="Fill-2" fill="#FEFEFE" points="113.949581 0.483967742 113.949581 14.4770323 115.183935 14.4770323 115.183935 10.6350968 117.183774 8.9696129 121.182 14.4770323 122.731839 14.4770323 118.124903 8.10783871 122.436677 4.36412903 120.790065 4.36412903 115.183935 9.26429032 115.183935 0.483967742"></polygon>
                <g id="Group-27" transform="translate(0.000000, 0.295694)">
                    <g id="Group-5">
                        <mask id="mask-2" fill="white">
                            <use xlink:href="#path-1"></use>
                        </mask>
                        <g id="Clip-4"></g>
                        <path d="M8.78259677,0.188080645 L6.33275806,0.188080645 L6.33275806,9.81227419 C6.33275806,11.5561452 5.96017742,12.5161452 4.3721129,12.5161452 C2.88179032,12.5161452 2.44969355,11.5938871 2.44969355,10.0067903 L2.44969355,9.28195161 L0.000338709677,9.28195161 L0.000338709677,10.0271129 C0.000338709677,12.5950161 1.21630645,14.5159839 4.17469355,14.5159839 C8.19517742,14.5159839 8.78259677,12.1053387 8.78259677,9.67243548 L8.78259677,0.188080645 Z" id="Fill-3" fill="#FEFEFE" mask="url(#mask-2)"></path>
                    </g>
                    <path d="M109.12771,6.43848387 L109.089484,6.43848387 L109.089484,4.06848387 L107.951419,4.06848387 L107.951419,14.1813871 L109.18529,14.1813871 L109.18529,8.793 C109.18529,6.67412903 110.71529,5.0696129 112.949323,5.1663871 L112.949323,3.92912903 C111.127548,3.85316129 109.754806,4.79380645 109.12771,6.43848387" id="Fill-6" fill="#FEFEFE"></path>
                    <path d="M73.2947903,4.81132258 C75.272371,4.81132258 76.4501129,6.5576129 76.509629,8.42051613 L69.9609194,8.42051613 C70.179629,6.57745161 71.2567258,4.81132258 73.2947903,4.81132258 M73.2947903,3.77487097 C70.0789839,3.77487097 68.7275323,6.45890323 68.7275323,9.12503226 C68.7275323,12.0069677 70.0789839,14.4756774 73.2947903,14.4756774 C75.8636613,14.4756774 77.1735,13.1450323 77.7047903,10.8485806 L76.4694677,10.8485806 C76.0775323,12.399871 75.0976935,13.4392258 73.2947903,13.4392258 C70.9436613,13.4392258 69.9609194,11.2618065 69.9609194,9.4593871 L77.7425323,9.4593871 C77.8412419,6.61567742 76.5304355,3.77487097 73.2947903,3.77487097" id="Fill-8" fill="#FEFEFE"></path>
                    <path d="M80.8033065,1.02991935 L79.5660484,1.02991935 L79.5660484,4.06862903 L77.8037903,4.06862903 L77.8037903,5.10798387 L79.5660484,5.10798387 L79.5660484,12.0273387 C79.5471774,13.7508871 80.1162097,14.3010484 81.761371,14.3010484 C82.136371,14.3010484 82.4871774,14.2628226 82.8587903,14.2628226 L82.8587903,13.203629 C82.5075,13.241371 82.1537903,13.2612097 81.8015323,13.2612097 C80.9194355,13.203629 80.8033065,12.7323387 80.8033065,11.9281452 L80.8033065,5.10798387 L82.8587903,5.10798387 L82.8587903,4.06862903 L80.8033065,4.06862903 L80.8033065,1.02991935 Z" id="Fill-10" fill="#FEFEFE"></path>
                    <path d="M102.286403,13.4390323 C99.9333387,13.4390323 98.7391452,11.2616129 98.7391452,9.12483871 C98.7391452,6.98806452 99.9333387,4.81112903 102.286403,4.81112903 C104.637532,4.81112903 105.83221,6.98806452 105.83221,9.12483871 C105.83221,11.2616129 104.637532,13.4390323 102.286403,13.4390323 M102.286403,3.77467742 C99.2085,3.77467742 97.5038226,6.22548387 97.5038226,9.12483871 C97.5038226,12.0270968 99.2085,14.4759677 102.286403,14.4759677 C105.364306,14.4759677 107.069468,12.0270968 107.069468,9.12483871 C107.069468,6.22548387 105.364306,3.77467742 102.286403,3.77467742" id="Fill-12" fill="#FEFEFE"></path>
                    <g id="Group-16" transform="translate(22.258065, 0.000000)">
                        <mask id="mask-4" fill="white">
                            <use xlink:href="#path-3"></use>
                        </mask>
                        <g id="Clip-15"></g>
                        <polygon id="Fill-14" fill="#FEFEFE" mask="url(#mask-4)" points="7.57814516 11.1453871 7.5375 11.1453871 3.67814516 0.188129032 0.226693548 0.188129032 0.226693548 14.1811935 2.55943548 14.1811935 2.55943548 3.38167742 2.59862903 3.38167742 6.48024194 14.1811935 8.49798387 14.1811935 12.378629 3.38167742 12.4178226 3.38167742 12.4178226 14.1811935 14.7495968 14.1811935 14.7495968 0.188129032 11.3416935 0.188129032"></polygon>
                    </g>
                    <polygon id="Fill-17" fill="#FEFEFE" points="66.3140806 12.0270968 66.2748871 12.0270968 58.1211774 0.188225806 56.6308548 0.188225806 56.6308548 14.1812903 57.965371 14.1812903 57.965371 2.34241935 58.0040806 2.34241935 66.1582742 14.1812903 67.6471452 14.1812903 67.6471452 0.188225806 66.3140806 0.188225806"></polygon>
                    <polygon id="Fill-19" fill="#FEFEFE" points="96.3457742 4.06853226 93.7585161 12.7322419 93.7169032 12.7322419 91.2510968 4.06853226 89.8580323 4.06853226 87.3883548 12.7322419 87.3486774 12.7322419 84.7614194 4.06853226 83.4481935 4.06853226 86.7022258 14.1814355 88.0536774 14.1814355 90.5248065 5.67595161 90.5630323 5.67595161 93.0530323 14.1814355 94.4049677 14.1814355 97.6580323 4.06853226"></polygon>
                    <g id="Group-23" transform="translate(37.741935, 0.000000)">
                        <mask id="mask-6" fill="white">
                            <use xlink:href="#path-5"></use>
                        </mask>
                        <g id="Clip-22"></g>
                        <path d="M4.52133871,8.61546774 L6.63924194,2.59853226 L6.69730645,2.59853226 L8.79585484,8.61546774 L4.52133871,8.61546774 Z M5.3831129,0.187887097 L0.0150483871,14.1814355 L2.54279032,14.1814355 L3.8531129,10.4788548 L9.44133871,10.4788548 L10.7550484,14.1814355 L13.3819839,14.1814355 L7.99117742,0.187887097 L5.3831129,0.187887097 Z" id="Fill-21" fill="#FEFEFE" mask="url(#mask-6)"></path>
                    </g>
                    <g id="Group-26" transform="translate(123.387097, 1.935484)">
                        <mask id="mask-8" fill="white">
                            <use xlink:href="#path-7"></use>
                        </mask>
                        <g id="Clip-25"></g>
                        <path d="M3.891,2.18453226 L3.59487097,2.18453226 L3.59487097,0.685983871 L3.58567742,0.685983871 L2.99777419,2.18453226 L2.811,2.18453226 L2.2226129,0.685983871 L2.21390323,0.685983871 L2.21390323,2.18453226 L1.91777419,2.18453226 L1.91777419,0.389854839 L2.37503226,0.389854839 L2.91116129,1.75291935 L3.4376129,0.389854839 L3.891,0.389854839 L3.891,2.18453226 Z M1.55148387,0.629370968 L0.989709677,0.629370968 L0.989709677,2.18453226 L0.693580645,2.18453226 L0.693580645,0.629370968 L0.131322581,0.629370968 L0.131322581,0.389854839 L1.55148387,0.389854839 L1.55148387,0.629370968 Z" id="Fill-24" fill="#FEFEFE" mask="url(#mask-8)"></path>
                    </g>
                </g>
            </g>
        </g>
    </g>
</svg>